<mxfile host="Electron" agent="Mozilla/5.0 (Windows NT 10.0; Win64; x64) AppleWebKit/537.36 (KHTML, like Gecko) draw.io/24.7.8 Chrome/128.0.6613.36 Electron/32.0.1 Safari/537.36" version="24.7.8">
  <diagram name="Page-1" id="jq0kUduC7U4jAb8kFlaa">
    <mxGraphModel dx="521" dy="613" grid="1" gridSize="10" guides="1" tooltips="1" connect="1" arrows="1" fold="1" page="1" pageScale="1" pageWidth="850" pageHeight="1100" math="0" shadow="0">
      <root>
        <mxCell id="0" />
        <mxCell id="1" parent="0" />
        <mxCell id="3zf86xYosUpf_dB3-r-N-7" style="edgeStyle=orthogonalEdgeStyle;rounded=0;orthogonalLoop=1;jettySize=auto;html=1;" edge="1" parent="1" source="3zf86xYosUpf_dB3-r-N-1" target="3zf86xYosUpf_dB3-r-N-2">
          <mxGeometry relative="1" as="geometry" />
        </mxCell>
        <mxCell id="3zf86xYosUpf_dB3-r-N-8" style="edgeStyle=orthogonalEdgeStyle;rounded=0;orthogonalLoop=1;jettySize=auto;html=1;exitX=0;exitY=1;exitDx=0;exitDy=0;" edge="1" parent="1" source="3zf86xYosUpf_dB3-r-N-1" target="3zf86xYosUpf_dB3-r-N-3">
          <mxGeometry relative="1" as="geometry" />
        </mxCell>
        <mxCell id="3zf86xYosUpf_dB3-r-N-9" style="edgeStyle=orthogonalEdgeStyle;rounded=0;orthogonalLoop=1;jettySize=auto;html=1;exitX=1;exitY=1;exitDx=0;exitDy=0;" edge="1" parent="1" source="3zf86xYosUpf_dB3-r-N-1" target="3zf86xYosUpf_dB3-r-N-4">
          <mxGeometry relative="1" as="geometry" />
        </mxCell>
        <mxCell id="3zf86xYosUpf_dB3-r-N-10" style="edgeStyle=orthogonalEdgeStyle;rounded=0;orthogonalLoop=1;jettySize=auto;html=1;exitX=1;exitY=0.5;exitDx=0;exitDy=0;" edge="1" parent="1" source="3zf86xYosUpf_dB3-r-N-1" target="3zf86xYosUpf_dB3-r-N-5">
          <mxGeometry relative="1" as="geometry" />
        </mxCell>
        <mxCell id="3zf86xYosUpf_dB3-r-N-1" value="&lt;font style=&quot;font-size: 14px;&quot;&gt;HUB&lt;/font&gt;" style="ellipse;whiteSpace=wrap;html=1;aspect=fixed;" vertex="1" parent="1">
          <mxGeometry x="270" y="160" width="80" height="80" as="geometry" />
        </mxCell>
        <mxCell id="3zf86xYosUpf_dB3-r-N-2" value="" style="ellipse;whiteSpace=wrap;html=1;aspect=fixed;" vertex="1" parent="1">
          <mxGeometry x="70" y="320" width="80" height="80" as="geometry" />
        </mxCell>
        <mxCell id="3zf86xYosUpf_dB3-r-N-3" value="" style="ellipse;whiteSpace=wrap;html=1;aspect=fixed;" vertex="1" parent="1">
          <mxGeometry x="200" y="380" width="80" height="80" as="geometry" />
        </mxCell>
        <mxCell id="3zf86xYosUpf_dB3-r-N-4" value="" style="ellipse;whiteSpace=wrap;html=1;aspect=fixed;" vertex="1" parent="1">
          <mxGeometry x="340" y="380" width="80" height="80" as="geometry" />
        </mxCell>
        <mxCell id="3zf86xYosUpf_dB3-r-N-5" value="" style="ellipse;whiteSpace=wrap;html=1;aspect=fixed;" vertex="1" parent="1">
          <mxGeometry x="460" y="320" width="80" height="80" as="geometry" />
        </mxCell>
        <mxCell id="3zf86xYosUpf_dB3-r-N-11" value="spokes" style="text;html=1;align=center;verticalAlign=middle;resizable=0;points=[];autosize=1;strokeColor=none;fillColor=none;" vertex="1" parent="1">
          <mxGeometry x="110" y="200" width="60" height="30" as="geometry" />
        </mxCell>
        <mxCell id="3zf86xYosUpf_dB3-r-N-12" value="&lt;font style=&quot;font-size: 24px;&quot;&gt;Hub and Spokes Architecture&lt;/font&gt;" style="text;html=1;align=center;verticalAlign=middle;resizable=0;points=[];autosize=1;strokeColor=none;fillColor=none;" vertex="1" parent="1">
          <mxGeometry x="150" y="470" width="330" height="40" as="geometry" />
        </mxCell>
        <mxCell id="3zf86xYosUpf_dB3-r-N-15" style="edgeStyle=orthogonalEdgeStyle;rounded=0;orthogonalLoop=1;jettySize=auto;html=1;entryX=0.5;entryY=0;entryDx=0;entryDy=0;" edge="1" parent="1" target="3zf86xYosUpf_dB3-r-N-1">
          <mxGeometry relative="1" as="geometry">
            <mxPoint x="315" y="120" as="targetPoint" />
            <mxPoint x="310" y="70" as="sourcePoint" />
          </mxGeometry>
        </mxCell>
        <mxCell id="3zf86xYosUpf_dB3-r-N-14" value="&lt;font style=&quot;font-size: 18px;&quot;&gt;Cloud Seating&lt;/font&gt;" style="text;html=1;align=center;verticalAlign=middle;resizable=0;points=[];autosize=1;strokeColor=none;fillColor=none;" vertex="1" parent="1">
          <mxGeometry x="245" y="20" width="140" height="40" as="geometry" />
        </mxCell>
      </root>
    </mxGraphModel>
  </diagram>
</mxfile>
